<svg xmlns="http://www.w3.org/2000/svg" viewBox="0 0 800 420" width="800" height="420" font-family="-apple-system,BlinkMacSystemFont,'Apple SD Gothic Neo','Pretendard','Noto Sans KR','Malgun Gothic',sans-serif">
<rect width="800" height="420" rx="16" fill="#f8fafc"/>
<text x="400" y="36" font-size="20" font-weight="700" fill="#0f172a" text-anchor="middle">월 1,500km 주행 시 연료비 비교</text><line x1="60" x2="760" y1="330" y2="330" stroke="#e2e8f0"/><text x="52" y="334" font-size="11" font-weight="400" fill="#64748b" text-anchor="end">0</text><line x1="60" x2="760" y1="265" y2="265" stroke="#e2e8f0"/><text x="52" y="269" font-size="11" font-weight="400" fill="#64748b" text-anchor="end">6</text><line x1="60" x2="760" y1="200" y2="200" stroke="#e2e8f0"/><text x="52" y="204" font-size="11" font-weight="400" fill="#64748b" text-anchor="end">12</text><line x1="60" x2="760" y1="135" y2="135" stroke="#e2e8f0"/><text x="52" y="139" font-size="11" font-weight="400" fill="#64748b" text-anchor="end">18</text><line x1="60" x2="760" y1="70" y2="70" stroke="#e2e8f0"/><text x="52" y="74" font-size="11" font-weight="400" fill="#64748b" text-anchor="end">24</text><rect x="131.66666666666669" y="256.3333333333333" width="90" height="73.66666666666667" rx="8" fill="#059669"/><text x="176.66666666666669" y="248.33333333333331" font-size="13" font-weight="700" fill="#0f172a" text-anchor="middle">6.8만원</text><text x="176.66666666666669" y="350" font-size="13" font-weight="600" fill="#0f172a" text-anchor="middle">완속 위주</text><text x="176.66666666666669" y="368" font-size="11" font-weight="400" fill="#64748b" text-anchor="middle">kWh당 약 250원</text><rect x="365.00000000000006" y="211.91666666666669" width="90" height="118.08333333333333" rx="8" fill="#34d399"/><text x="410.00000000000006" y="203.91666666666669" font-size="13" font-weight="700" fill="#0f172a" text-anchor="middle">10.9만원</text><text x="410.00000000000006" y="350" font-size="13" font-weight="600" fill="#0f172a" text-anchor="middle">급속 위주</text><text x="410.00000000000006" y="368" font-size="11" font-weight="400" fill="#64748b" text-anchor="middle">kWh당 약 400원</text><rect x="598.3333333333334" y="106.83333333333334" width="90" height="223.16666666666666" rx="8" fill="#475569"/><text x="643.3333333333334" y="98.83333333333334" font-size="13" font-weight="700" fill="#0f172a" text-anchor="middle">20.6만원</text><text x="643.3333333333334" y="350" font-size="13" font-weight="600" fill="#0f172a" text-anchor="middle">휘발유차</text><text x="643.3333333333334" y="368" font-size="11" font-weight="400" fill="#64748b" text-anchor="middle">12km/L · 1,650원/L</text><text x="400" y="404" font-size="12" font-weight="400" fill="#64748b" text-anchor="middle">전비 5.5km/kWh 기준 · 단위 만원/월</text>
</svg>
