<svg xmlns="http://www.w3.org/2000/svg" viewBox="0 0 800 314" width="800" height="314" font-family="-apple-system,BlinkMacSystemFont,'Apple SD Gothic Neo','Pretendard','Noto Sans KR','Malgun Gothic',sans-serif">
<rect width="800" height="314" rx="16" fill="#f8fafc"/>
<text x="400" y="36" font-size="20" font-weight="700" fill="#0f172a" text-anchor="middle">국비 가산 항목 (전국 공통, 2026)</text><text x="238" y="80" font-size="13" font-weight="600" fill="#0f172a" text-anchor="end">다자녀 4명 이상</text><rect x="250" y="66" width="438.0952380952381" height="22" rx="6" fill="#7c3aed"/><text x="696.0952380952381" y="80" font-size="12" font-weight="700" fill="#0f172a" text-anchor="start">300만원</text><text x="238" y="114" font-size="13" font-weight="600" fill="#0f172a" text-anchor="end">다자녀 3명</text><rect x="250" y="100" width="292.06349206349205" height="22" rx="6" fill="#7c3aed"/><text x="550.063492063492" y="114" font-size="12" font-weight="700" fill="#0f172a" text-anchor="start">200만원</text><text x="238" y="148" font-size="13" font-weight="600" fill="#0f172a" text-anchor="end">청년 생애최초 (국비 570 기준 20%)</text><rect x="250" y="134" width="166.47619047619048" height="22" rx="6" fill="#2563eb"/><text x="424.4761904761905" y="148" font-size="12" font-weight="700" fill="#0f172a" text-anchor="start">114만원</text><text x="238" y="182" font-size="13" font-weight="600" fill="#0f172a" text-anchor="end">다자녀 2명</text><rect x="250" y="168" width="146.03174603174602" height="22" rx="6" fill="#7c3aed"/><text x="404.031746031746" y="182" font-size="12" font-weight="700" fill="#0f172a" text-anchor="start">100만원</text><text x="238" y="216" font-size="13" font-weight="600" fill="#0f172a" text-anchor="end">전환지원금</text><rect x="250" y="202" width="146.03174603174602" height="22" rx="6" fill="#f59e0b"/><text x="404.031746031746" y="216" font-size="12" font-weight="700" fill="#0f172a" text-anchor="start">100만원</text><text x="238" y="250" font-size="13" font-weight="600" fill="#0f172a" text-anchor="end">취약계층 (국비 570 기준 10%)</text><rect x="250" y="236" width="83.23809523809524" height="22" rx="6" fill="#0284c7"/><text x="341.23809523809524" y="250" font-size="12" font-weight="700" fill="#0f172a" text-anchor="start">57만원</text><text x="400" y="298" font-size="12" font-weight="400" fill="#64748b" text-anchor="middle">국비 가산끼리는 모두 중복 가능 · 지자체 자체 인센티브는 별도</text>
</svg>
