<svg xmlns="http://www.w3.org/2000/svg" viewBox="0 0 800 518" width="800" height="518" font-family="-apple-system,BlinkMacSystemFont,'Apple SD Gothic Neo','Pretendard','Noto Sans KR','Malgun Gothic',sans-serif">
<rect width="800" height="518" rx="16" fill="#f8fafc"/>
<text x="400" y="36" font-size="20" font-weight="700" fill="#0f172a" text-anchor="middle">2026 시·도별 일반승용 지방비 최대액</text><text x="238" y="80" font-size="13" font-weight="600" fill="#0f172a" text-anchor="end">경북 (울릉군)</text><rect x="250" y="66" width="438.0952380952381" height="22" rx="6" fill="#059669"/><text x="696.0952380952381" y="80" font-size="12" font-weight="700" fill="#0f172a" text-anchor="start">756만원</text><text x="238" y="114" font-size="13" font-weight="600" fill="#0f172a" text-anchor="end">전남 (보성·완도)</text><rect x="250" y="100" width="347.6946334089191" height="22" rx="6" fill="#059669"/><text x="605.6946334089191" y="114" font-size="12" font-weight="700" fill="#0f172a" text-anchor="start">600만원</text><text x="238" y="148" font-size="13" font-weight="600" fill="#0f172a" text-anchor="end">경남 (합천)</text><rect x="250" y="134" width="282.7916351725875" height="22" rx="6" fill="#34d399"/><text x="540.7916351725876" y="148" font-size="12" font-weight="700" fill="#0f172a" text-anchor="start">488만원</text><text x="238" y="182" font-size="13" font-weight="600" fill="#0f172a" text-anchor="end">전북</text><rect x="250" y="168" width="251.4991181657848" height="22" rx="6" fill="#34d399"/><text x="509.4991181657848" y="182" font-size="12" font-weight="700" fill="#0f172a" text-anchor="start">434만원</text><text x="238" y="216" font-size="13" font-weight="600" fill="#0f172a" text-anchor="end">충남</text><rect x="250" y="202" width="239.9092970521542" height="22" rx="6" fill="#34d399"/><text x="497.9092970521542" y="216" font-size="12" font-weight="700" fill="#0f172a" text-anchor="start">414만원</text><text x="238" y="250" font-size="13" font-weight="600" fill="#0f172a" text-anchor="end">충북</text><rect x="250" y="236" width="231.79642227261272" height="22" rx="6" fill="#34d399"/><text x="489.79642227261274" y="250" font-size="12" font-weight="700" fill="#0f172a" text-anchor="start">400만원</text><text x="238" y="284" font-size="13" font-weight="600" fill="#0f172a" text-anchor="end">경기 (연천)</text><rect x="250" y="270" width="220.2066011589821" height="22" rx="6" fill="#a7f3d0"/><text x="478.2066011589821" y="284" font-size="12" font-weight="700" fill="#0f172a" text-anchor="start">380만원</text><text x="238" y="318" font-size="13" font-weight="600" fill="#0f172a" text-anchor="end">제주</text><rect x="250" y="304" width="159.9395313681028" height="22" rx="6" fill="#a7f3d0"/><text x="417.9395313681028" y="318" font-size="12" font-weight="700" fill="#0f172a" text-anchor="start">276만원</text><text x="238" y="352" font-size="13" font-weight="600" fill="#0f172a" text-anchor="end">부산</text><rect x="250" y="338" width="129.80599647266314" height="22" rx="6" fill="#a7f3d0"/><text x="387.80599647266314" y="352" font-size="12" font-weight="700" fill="#0f172a" text-anchor="start">224만원</text><text x="238" y="386" font-size="13" font-weight="600" fill="#0f172a" text-anchor="end">울산</text><rect x="250" y="372" width="128.06752330561852" height="22" rx="6" fill="#a7f3d0"/><text x="386.0675233056185" y="386" font-size="12" font-weight="700" fill="#0f172a" text-anchor="start">221만원</text><text x="238" y="420" font-size="13" font-weight="600" fill="#0f172a" text-anchor="end">강원</text><rect x="250" y="406" width="115.89821113630636" height="22" rx="6" fill="#a7f3d0"/><text x="373.8982111363064" y="420" font-size="12" font-weight="700" fill="#0f172a" text-anchor="start">200만원</text><text x="238" y="454" font-size="13" font-weight="600" fill="#0f172a" text-anchor="end">서울·대구·인천·광주·대전·세종</text><rect x="250" y="440" width="112.42126480221718" height="22" rx="6" fill="#a7f3d0"/><text x="370.4212648022172" y="454" font-size="12" font-weight="700" fill="#0f172a" text-anchor="start">194만원</text><text x="400" y="502" font-size="12" font-weight="400" fill="#64748b" text-anchor="middle">시·도 내 가장 높은 시·군·구 기준 · 2026-09 무공해차 통합누리집 수집값</text>
</svg>
