<svg xmlns="http://www.w3.org/2000/svg" viewBox="0 0 800 420" width="800" height="420" font-family="-apple-system,BlinkMacSystemFont,'Apple SD Gothic Neo','Pretendard','Noto Sans KR','Malgun Gothic',sans-serif">
<rect width="800" height="420" rx="16" fill="#f8fafc"/>
<text x="400" y="36" font-size="20" font-weight="700" fill="#0f172a" text-anchor="middle">지역별 합산 보조금: 아이오닉 6 LR vs 모델 Y 프리미엄 LR</text><line x1="60" x2="760" y1="330" y2="330" stroke="#e2e8f0"/><text x="52" y="334" font-size="11" font-weight="400" fill="#64748b" text-anchor="end">0</text><line x1="60" x2="760" y1="265" y2="265" stroke="#e2e8f0"/><text x="52" y="269" font-size="11" font-weight="400" fill="#64748b" text-anchor="end">375</text><line x1="60" x2="760" y1="200" y2="200" stroke="#e2e8f0"/><text x="52" y="204" font-size="11" font-weight="400" fill="#64748b" text-anchor="end">750</text><line x1="60" x2="760" y1="135" y2="135" stroke="#e2e8f0"/><text x="52" y="139" font-size="11" font-weight="400" fill="#64748b" text-anchor="end">1,125</text><line x1="60" x2="760" y1="70" y2="70" stroke="#e2e8f0"/><text x="52" y="74" font-size="11" font-weight="400" fill="#64748b" text-anchor="end">1,500</text><rect x="83.33333333333334" y="198.09333333333333" width="70" height="131.90666666666667" rx="8" fill="#059669"/><text x="118.33333333333334" y="190.09333333333333" font-size="13" font-weight="700" fill="#0f172a" text-anchor="middle">761만원</text><text x="118.33333333333334" y="350" font-size="13" font-weight="600" fill="#0f172a" text-anchor="middle">서울</text><text x="118.33333333333334" y="368" font-size="11" font-weight="400" fill="#64748b" text-anchor="middle">아이오닉 6</text><rect x="200.00000000000003" y="281.4666666666667" width="70" height="48.53333333333333" rx="8" fill="#0284c7"/><text x="235.00000000000003" y="273.4666666666667" font-size="13" font-weight="700" fill="#0f172a" text-anchor="middle">280만원</text><text x="235.00000000000003" y="350" font-size="13" font-weight="600" fill="#0f172a" text-anchor="middle">서울</text><text x="235.00000000000003" y="368" font-size="11" font-weight="400" fill="#64748b" text-anchor="middle">모델 Y</text><rect x="316.6666666666667" y="197.05333333333334" width="70" height="132.94666666666666" rx="8" fill="#059669"/><text x="351.6666666666667" y="189.05333333333334" font-size="13" font-weight="700" fill="#0f172a" text-anchor="middle">767만원</text><text x="351.6666666666667" y="350" font-size="13" font-weight="600" fill="#0f172a" text-anchor="middle">경기 파주</text><text x="351.6666666666667" y="368" font-size="11" font-weight="400" fill="#64748b" text-anchor="middle">아이오닉 6</text><rect x="433.3333333333333" y="281.12" width="70" height="48.88" rx="8" fill="#0284c7"/><text x="468.3333333333333" y="273.12" font-size="13" font-weight="700" fill="#0f172a" text-anchor="middle">282만원</text><text x="468.3333333333333" y="350" font-size="13" font-weight="600" fill="#0f172a" text-anchor="middle">경기 파주</text><text x="468.3333333333333" y="368" font-size="11" font-weight="400" fill="#64748b" text-anchor="middle">모델 Y</text><rect x="550.0000000000001" y="102.41333333333333" width="70" height="227.58666666666667" rx="8" fill="#059669"/><text x="585.0000000000001" y="94.41333333333333" font-size="13" font-weight="700" fill="#0f172a" text-anchor="middle">1,313만원</text><text x="585.0000000000001" y="350" font-size="13" font-weight="600" fill="#0f172a" text-anchor="middle">경북 울릉</text><text x="585.0000000000001" y="368" font-size="11" font-weight="400" fill="#64748b" text-anchor="middle">아이오닉 6</text><rect x="666.6666666666667" y="246.10666666666668" width="70" height="83.89333333333333" rx="8" fill="#0284c7"/><text x="701.6666666666667" y="238.10666666666668" font-size="13" font-weight="700" fill="#0f172a" text-anchor="middle">484만원</text><text x="701.6666666666667" y="350" font-size="13" font-weight="600" fill="#0f172a" text-anchor="middle">경북 울릉</text><text x="701.6666666666667" y="368" font-size="11" font-weight="400" fill="#64748b" text-anchor="middle">모델 Y</text><text x="400" y="404" font-size="12" font-weight="400" fill="#64748b" text-anchor="middle">국비 570 vs 210 · 지방비 비례 계산 · 단위 만원</text>
</svg>
